<svg xmlns="http://www.w3.org/2000/svg" xmlns:xlink="http://www.w3.org/1999/xlink" width="67" height="39" version="1.1" viewBox="0 0 67 39"><title>Forum</title><desc>Created with Sketch.</desc><defs><path id="path-1" d="M1,35.6666667 L49,35.6666667"/><filter id="filter-2" width="112.2%" height="300%" x="-4.1%" y="-66.7%" filterUnits="objectBoundingBox"><feMorphology in="SourceAlpha" operator="dilate" radius="1" result="shadowSpreadOuter1"/><feOffset dx="2" dy="2" in="shadowSpreadOuter1" result="shadowOffsetOuter1"/><feMorphology in="SourceAlpha" operator="erode" radius="1" result="shadowInner"/><feOffset dx="2" dy="2" in="shadowInner" result="shadowInner"/><feComposite in="shadowOffsetOuter1" in2="shadowInner" operator="out" result="shadowOffsetOuter1"/><feColorMatrix in="shadowOffsetOuter1" type="matrix" values="0 0 0 0 1 0 0 0 0 1 0 0 0 0 1 0 0 0 1 0"/></filter><rect id="path-3" width="47" height="10" x="20" y="13" rx="5"/><rect id="path-4" width="42" height="9" x="15" y="27" rx="4.5"/><rect id="path-5" width="47" height="10" x="7" y="0" rx="5"/></defs><g id="LESS-Dokumentation" fill="none" fill-rule="evenodd" stroke="none" stroke-width="1"><g id="Homepage-two" transform="translate(-1436.000000, -1575.000000)"><g id="Link-Liste" transform="translate(639.000000, 1254.000000)"><g id="Forum" transform="translate(797.000000, 321.000000)"><g id="Path-23" stroke-linecap="round"><use fill="#000" fill-opacity="1" filter="url(#filter-2)" xlink:href="#path-1"/><use stroke="#189EFF" stroke-opacity=".3" stroke-width="2" xlink:href="#path-1"/></g><g id="Rectangle-15"><use fill="#FFDB47" fill-rule="evenodd" xlink:href="#path-3"/><rect width="45" height="8" x="21" y="14" stroke="#0049FF" stroke-width="2" rx="4"/></g><g id="Rectangle-15"><use fill="#92B1FF" fill-rule="evenodd" xlink:href="#path-4"/><rect width="40" height="7" x="16" y="28" stroke="#0049FF" stroke-width="2" rx="3.5"/></g><g id="Rectangle-15"><use fill="#189EFF" fill-opacity=".44" fill-rule="evenodd" xlink:href="#path-5"/><rect width="45" height="8" x="8" y="1" stroke="#0049FF" stroke-width="2" rx="4"/></g><path id="Oval-11" fill="#FFDB47" d="M61.8081872,25.9815263 C63.7841387,25.7375358 62.7653354,23.7691986 64.3294182,20.6850251 C65.8935009,17.6008517 64.8149602,15 60.1046356,15 C57.4629123,15 52.1917937,15.815494 52.0213048,17.5731657 C51.6969836,20.9167865 55.1398222,18.6646386 57.962592,21.4188435 C60.6263028,24.0178529 59.8322357,26.2255167 61.8081872,25.9815263 Z"/><path id="Oval-11" fill="#88CDFF" d="M23.2370186,20.9996091 C25.2431292,21.0453125 23.076518,15.9151256 24.505886,9.79011145 C25.9352541,3.66509734 24.2207959,2.08837891 19.9161722,2.08837891 C17.5019809,2.08837891 10.64287,3.7495492 8.8746517,5.32860602 C7.60059005,6.46637036 12.1422445,7.0940332 14.1841368,7.2888709 C16.851545,7.54339543 19.3405995,8.73317096 19.9161722,9.79011145 C22.579547,14.6809414 21.230908,20.9539057 23.2370186,20.9996091 Z" transform="translate(16.826429, 11.544146) scale(-1, 1) translate(-16.826429, -11.544146)"/><circle id="Oval-12" cx="10" cy="26" r="2" fill="#189EFF" fill-opacity=".44"/></g></g></g></g></svg>